<svg width="117" height="19" viewBox="0 0 117 19" fill="none" xmlns="http://www.w3.org/2000/svg">
<path d="M0.942973 18.0002V17.4022L2.87497 17.1722C2.89031 16.5896 2.89797 15.9226 2.89797 15.1712C2.91331 14.4046 2.92097 13.7376 2.92097 13.1702V2.15324L0.896973 2.06124V1.46323L3.74897 0.865234L4.09397 1.04923L4.02497 4.31524V9.26023C4.74564 8.43224 5.48931 7.82657 6.25597 7.44324C7.03797 7.04457 7.77397 6.84524 8.46397 6.84524C9.36864 6.84524 10.0663 7.1519 10.557 7.76524C11.063 8.37857 11.316 9.42123 11.316 10.8932V13.1702C11.316 13.7376 11.316 14.4046 11.316 15.1712C11.3313 15.9226 11.3466 16.5896 11.362 17.1722L13.133 17.4022V18.0002H8.21097V17.4022L10.143 17.1722C10.1583 16.5896 10.166 15.9226 10.166 15.1712C10.1813 14.4046 10.189 13.7376 10.189 13.1702V10.9622C10.189 9.82757 9.99731 9.03024 9.61397 8.57024C9.24597 8.11024 8.71697 7.88024 8.02697 7.88024C7.50564 7.88024 6.91531 8.0259 6.25597 8.31723C5.59664 8.59324 4.86064 9.16057 4.04797 10.0192V13.1702C4.04797 13.7376 4.04797 14.4046 4.04797 15.1712C4.06331 15.9226 4.07864 16.5896 4.09397 17.1722L5.86497 17.4022V18.0002H0.942973Z" fill="#676767"/>
<path d="M20.3888 18.2992C19.5454 18.2992 18.7328 18.0999 17.9508 17.7012C17.1841 17.2872 16.5478 16.6586 16.0418 15.8152C15.5511 14.9719 15.3058 13.9062 15.3058 12.6182C15.3058 11.3149 15.5511 10.2416 16.0418 9.39824C16.5478 8.53957 17.1841 7.90324 17.9508 7.48924C18.7328 7.0599 19.5454 6.84524 20.3888 6.84524C21.2321 6.84524 22.0371 7.0599 22.8038 7.48924C23.5858 7.90324 24.2298 8.53957 24.7358 9.39824C25.2418 10.2416 25.4948 11.3149 25.4948 12.6182C25.4948 13.9062 25.2418 14.9719 24.7358 15.8152C24.2298 16.6586 23.5858 17.2872 22.8038 17.7012C22.0371 18.0999 21.2321 18.2992 20.3888 18.2992ZM20.3888 17.6092C21.5541 17.6092 22.4818 17.1722 23.1718 16.2982C23.8618 15.4242 24.2068 14.1976 24.2068 12.6182C24.2068 11.0236 23.8618 9.78157 23.1718 8.89223C22.4818 8.0029 21.5541 7.55824 20.3888 7.55824C19.2234 7.55824 18.2958 8.0029 17.6058 8.89223C16.9158 9.78157 16.5708 11.0236 16.5708 12.6182C16.5708 14.1976 16.9158 15.4242 17.6058 16.2982C18.2958 17.1722 19.2234 17.6092 20.3888 17.6092Z" fill="#676767"/>
<path d="M40.0306 7.78824V7.14424H44.2396V7.78824L42.8366 7.99523L39.5016 18.1382H38.9496L35.7296 8.86924L32.4406 18.1382H31.8656L28.3006 7.97224L26.7826 7.78824V7.14424H31.5436V7.78824L29.5886 7.97224L32.3486 16.3672L35.3386 7.97224L33.6136 7.78824V7.14424H38.1676V7.78824L36.4196 7.97224L39.4096 16.2982L42.0086 7.99523L40.0306 7.78824Z" fill="#676767"/>
<path d="M46.0195 12.5003C46.0195 11.3669 46.2462 10.3803 46.6995 9.54027C47.1529 8.68694 47.7795 8.02694 48.5795 7.56027C49.3929 7.09361 50.3195 6.86027 51.3595 6.86027C52.7062 6.86027 53.8129 7.18694 54.6795 7.84027C55.5595 8.49361 56.1395 9.40027 56.4195 10.5603H54.4595C54.2729 9.89361 53.9062 9.36694 53.3595 8.98027C52.8262 8.59361 52.1595 8.40027 51.3595 8.40027C50.3195 8.40027 49.4795 8.76027 48.8395 9.48027C48.1995 10.1869 47.8795 11.1936 47.8795 12.5003C47.8795 13.8203 48.1995 14.8403 48.8395 15.5603C49.4795 16.2803 50.3195 16.6403 51.3595 16.6403C52.1595 16.6403 52.8262 16.4536 53.3595 16.0803C53.8929 15.7069 54.2595 15.1736 54.4595 14.4803H56.4195C56.1262 15.6003 55.5395 16.5003 54.6595 17.1803C53.7795 17.8469 52.6795 18.1803 51.3595 18.1803C50.3195 18.1803 49.3929 17.9469 48.5795 17.4803C47.7795 17.0136 47.1529 16.3536 46.6995 15.5003C46.2462 14.6469 46.0195 13.6469 46.0195 12.5003Z" fill="#2A2A2A"/>
<path d="M60.868 8.82027C61.188 8.19361 61.6413 7.70694 62.228 7.36027C62.828 7.01361 63.5546 6.84027 64.408 6.84027V8.72027H63.928C61.888 8.72027 60.868 9.82694 60.868 12.0403V18.0003H59.048V7.04027H60.868V8.82027Z" fill="#2A2A2A"/>
<path d="M71.4889 18.1803C70.4622 18.1803 69.5289 17.9469 68.6889 17.4803C67.8622 17.0136 67.2089 16.3536 66.7289 15.5003C66.2622 14.6336 66.0289 13.6336 66.0289 12.5003C66.0289 11.3803 66.2689 10.3936 66.7489 9.54027C67.2422 8.67361 67.9089 8.01361 68.7489 7.56027C69.5889 7.09361 70.5289 6.86027 71.5689 6.86027C72.6089 6.86027 73.5489 7.09361 74.3889 7.56027C75.2289 8.01361 75.8889 8.66694 76.3689 9.52027C76.8622 10.3736 77.1089 11.3669 77.1089 12.5003C77.1089 13.6336 76.8556 14.6336 76.3489 15.5003C75.8556 16.3536 75.1822 17.0136 74.3289 17.4803C73.4756 17.9469 72.5289 18.1803 71.4889 18.1803ZM71.4889 16.5803C72.1422 16.5803 72.7556 16.4269 73.3289 16.1203C73.9022 15.8136 74.3622 15.3536 74.7089 14.7403C75.0689 14.1269 75.2489 13.3803 75.2489 12.5003C75.2489 11.6203 75.0756 10.8736 74.7289 10.2603C74.3822 9.64694 73.9289 9.19361 73.3689 8.90027C72.8089 8.59361 72.2022 8.44027 71.5489 8.44027C70.8822 8.44027 70.2689 8.59361 69.7089 8.90027C69.1622 9.19361 68.7222 9.64694 68.3889 10.2603C68.0556 10.8736 67.8889 11.6203 67.8889 12.5003C67.8889 13.3936 68.0489 14.1469 68.3689 14.7603C68.7022 15.3736 69.1422 15.8336 69.6889 16.1403C70.2356 16.4336 70.8356 16.5803 71.4889 16.5803Z" fill="#2A2A2A"/>
<path d="M79.0219 12.4803C79.0219 11.3603 79.2485 10.3803 79.7019 9.54027C80.1552 8.68694 80.7752 8.02694 81.5619 7.56027C82.3619 7.09361 83.2485 6.86027 84.2219 6.86027C85.1819 6.86027 86.0152 7.06694 86.7219 7.48027C87.4285 7.89361 87.9552 8.41361 88.3019 9.04027V7.04027H90.1419V18.0003H88.3019V15.9603C87.9419 16.6003 87.4019 17.1336 86.6819 17.5603C85.9752 17.9736 85.1485 18.1803 84.2019 18.1803C83.2285 18.1803 82.3485 17.9403 81.5619 17.4603C80.7752 16.9803 80.1552 16.3069 79.7019 15.4403C79.2485 14.5736 79.0219 13.5869 79.0219 12.4803ZM88.3019 12.5003C88.3019 11.6736 88.1352 10.9536 87.8019 10.3403C87.4685 9.72694 87.0152 9.26027 86.4419 8.94027C85.8819 8.60694 85.2619 8.44027 84.5819 8.44027C83.9019 8.44027 83.2819 8.60027 82.7219 8.92027C82.1619 9.24027 81.7152 9.70694 81.3819 10.3203C81.0485 10.9336 80.8819 11.6536 80.8819 12.4803C80.8819 13.3203 81.0485 14.0536 81.3819 14.6803C81.7152 15.2936 82.1619 15.7669 82.7219 16.1003C83.2819 16.4203 83.9019 16.5803 84.5819 16.5803C85.2619 16.5803 85.8819 16.4203 86.4419 16.1003C87.0152 15.7669 87.4685 15.2936 87.8019 14.6803C88.1352 14.0536 88.3019 13.3269 88.3019 12.5003Z" fill="#2A2A2A"/>
<path d="M95.6375 8.54027V15.0003C95.6375 15.5336 95.7508 15.9136 95.9775 16.1403C96.2042 16.3536 96.5975 16.4603 97.1575 16.4603H98.4975V18.0003H96.8575C95.8442 18.0003 95.0842 17.7669 94.5775 17.3003C94.0708 16.8336 93.8175 16.0669 93.8175 15.0003V8.54027H92.3975V7.04027H93.8175V4.28027H95.6375V7.04027H98.4975V8.54027H95.6375Z" fill="#2A2A2A"/>
<path d="M101.843 5.26027C101.496 5.26027 101.203 5.14027 100.963 4.90027C100.723 4.66027 100.603 4.36694 100.603 4.02027C100.603 3.67361 100.723 3.38027 100.963 3.14027C101.203 2.90027 101.496 2.78027 101.843 2.78027C102.176 2.78027 102.456 2.90027 102.683 3.14027C102.923 3.38027 103.043 3.67361 103.043 4.02027C103.043 4.36694 102.923 4.66027 102.683 4.90027C102.456 5.14027 102.176 5.26027 101.843 5.26027ZM102.723 7.04027V18.0003H100.903V7.04027H102.723Z" fill="#2A2A2A"/>
<path d="M105.345 12.4803C105.345 11.3603 105.571 10.3803 106.025 9.54027C106.478 8.68694 107.098 8.02694 107.885 7.56027C108.685 7.09361 109.571 6.86027 110.545 6.86027C111.505 6.86027 112.338 7.06694 113.045 7.48027C113.751 7.89361 114.278 8.41361 114.625 9.04027V7.04027H116.465V18.0003H114.625V15.9603C114.265 16.6003 113.725 17.1336 113.005 17.5603C112.298 17.9736 111.471 18.1803 110.525 18.1803C109.551 18.1803 108.671 17.9403 107.885 17.4603C107.098 16.9803 106.478 16.3069 106.025 15.4403C105.571 14.5736 105.345 13.5869 105.345 12.4803ZM114.625 12.5003C114.625 11.6736 114.458 10.9536 114.125 10.3403C113.791 9.72694 113.338 9.26027 112.765 8.94027C112.205 8.60694 111.585 8.44027 110.905 8.44027C110.225 8.44027 109.605 8.60027 109.045 8.92027C108.485 9.24027 108.038 9.70694 107.705 10.3203C107.371 10.9336 107.205 11.6536 107.205 12.4803C107.205 13.3203 107.371 14.0536 107.705 14.6803C108.038 15.2936 108.485 15.7669 109.045 16.1003C109.605 16.4203 110.225 16.5803 110.905 16.5803C111.585 16.5803 112.205 16.4203 112.765 16.1003C113.338 15.7669 113.791 15.2936 114.125 14.6803C114.458 14.0536 114.625 13.3269 114.625 12.5003Z" fill="#2A2A2A"/>
</svg>
